<?xml version="1.0" standalone="no"?><!DOCTYPE svg PUBLIC "-//W3C//DTD SVG 1.1//EN" "http://www.w3.org/Graphics/SVG/1.1/DTD/svg11.dtd"><svg t="1679367961178" class="icon" viewBox="0 0 1024 1024" version="1.1" xmlns="http://www.w3.org/2000/svg" p-id="2849" xmlns:xlink="http://www.w3.org/1999/xlink" width="200" height="200"><path d="M304.7 166.8v34.4c0 38.1 31.1 69.2 69.2 69.2h276.2c38.1 0 69.2-31.1 69.2-69.2v-34.4h103.5c17.4 0 34.4 13.7 34.4 34.4v690.3c0 20.7-17.4 34.4-34.4 34.4H201.2c-17.4 0-34.4-13.7-34.4-34.4V201.2c0-20.7 17.4-34.4 34.4-34.4h103.5z m69.2 258.8c0 10.4 7 17.4 17.4 17.4h241.4c10.4 0 17.4-7 17.4-17.4 0-10.4-7-17.4-17.4-17.4H390.9c-10.4 0-17 7.1-17 17.4z m-69.2 137.9c0 10.4 7 17.4 17.4 17.4h379.7c10.4 0 17.4-7 17.4-17.4 0-10.4-7-17.4-17.4-17.4H322.1c-10.3 0-17.4 7.1-17.4 17.4z m0 137.9c0 10.4 7 17.4 17.4 17.4h379.7c10.4 0 17.4-7 17.4-17.4 0-10.4-7-17.4-17.4-17.4H322.1c-10.3 0.4-17.4 7.1-17.4 17.4zM339.1 132c0-20.7 17.4-34.4 34.4-34.4h276.2c17.4 0 34.4 13.7 34.4 34.4v69.2c0 20.7-17.4 34.4-34.4 34.4H373.9c-17.4 0-34.4-13.7-34.4-34.4-0.4 0-0.4-69.2-0.4-69.2z m0 0" p-id="2850"></path></svg>